<svg xmlns="http://www.w3.org/2000/svg" xmlns:xlink="http://www.w3.org/1999/xlink" width="108" zoomAndPan="magnify" viewBox="0 0 81 30.000001" height="40" preserveAspectRatio="xMidYMid meet" version="1.0"><defs><g/><clipPath id="id1"><path d="M 74 17 L 79.691406 17 L 79.691406 23 L 74 23 Z M 74 17 " clip-rule="nonzero"/></clipPath><clipPath id="id2"><path d="M 1.304688 3 L 10 3 L 10 27 L 1.304688 27 Z M 1.304688 3 " clip-rule="nonzero"/></clipPath></defs><g fill="#f15c5c" fill-opacity="0.302"><g transform="translate(3.664403, 22.235408)"><g><path d="M 3.164062 -16.957031 L 3.21875 -1.839844 C 3.21875 -1.542969 3.109375 -1.296875 2.921875 -1.136719 C 2.730469 -0.945312 2.515625 -0.867188 2.296875 -0.867188 C 1.921875 -0.867188 1.570312 -0.785156 1.296875 -0.648438 C 1.027344 -0.515625 0.785156 -0.351562 0.59375 -0.136719 C 0.378906 0.0820312 0.242188 0.324219 0.136719 0.566406 C 0.0273438 0.839844 0 1.082031 0 1.296875 C 0 1.542969 0.0273438 1.785156 0.136719 2.027344 C 0.242188 2.296875 0.378906 2.515625 0.566406 2.730469 C 0.757812 2.949219 1 3.136719 1.269531 3.273438 C 1.542969 3.40625 1.894531 3.460938 2.273438 3.460938 C 3.136719 3.460938 3.894531 3.328125 4.570312 3 C 5.246094 2.675781 5.8125 2.273438 6.300781 1.757812 C 6.789062 1.269531 7.140625 0.703125 7.382812 0.0546875 C 7.625 -0.566406 7.761719 -1.191406 7.761719 -1.8125 L 7.761719 -17.011719 C 7.761719 -17.226562 7.707031 -17.46875 7.597656 -17.742188 C 7.492188 -17.984375 7.355469 -18.199219 7.167969 -18.417969 C 6.949219 -18.605469 6.707031 -18.769531 6.4375 -18.902344 C 6.164062 -19.039062 5.839844 -19.121094 5.460938 -19.121094 C 5.085938 -19.121094 4.734375 -19.039062 4.460938 -18.902344 C 4.191406 -18.769531 3.949219 -18.605469 3.757812 -18.390625 C 3.542969 -18.171875 3.40625 -17.957031 3.300781 -17.714844 C 3.191406 -17.441406 3.164062 -17.199219 3.164062 -16.957031 Z M 3.164062 -16.957031 "/></g></g></g><g fill="#f15c5c" fill-opacity="0.302"><g transform="translate(13.478582, 22.235408)"><g><path d="M 13.117188 -17.496094 C 12.953125 -17.929688 12.628906 -18.308594 12.195312 -18.660156 C 11.738281 -18.984375 11.195312 -19.175781 10.574219 -19.175781 C 9.925781 -19.175781 9.382812 -18.984375 8.925781 -18.660156 C 8.464844 -18.335938 8.140625 -17.929688 7.976562 -17.496094 L 2.164062 -2.894531 C 2.054688 -2.648438 2.027344 -2.40625 2.027344 -2.136719 C 2.027344 -1.894531 2.054688 -1.648438 2.164062 -1.40625 C 2.273438 -1.136719 2.40625 -0.917969 2.597656 -0.730469 C 2.785156 -0.515625 3.027344 -0.351562 3.328125 -0.214844 C 3.597656 -0.0820312 3.921875 -0.0273438 4.300781 -0.0273438 C 4.839844 -0.0273438 5.300781 -0.164062 5.679688 -0.460938 C 6.03125 -0.730469 6.273438 -1.054688 6.4375 -1.433594 L 7.949219 -5.246094 C 7.976562 -5.300781 8.03125 -5.355469 8.085938 -5.410156 C 8.140625 -5.4375 8.222656 -5.460938 8.273438 -5.460938 L 12.84375 -5.460938 C 12.953125 -5.460938 13.0625 -5.382812 13.171875 -5.246094 L 14.65625 -1.433594 C 14.792969 -1.054688 15.035156 -0.730469 15.414062 -0.460938 C 15.765625 -0.164062 16.226562 -0.0273438 16.792969 -0.0273438 C 17.171875 -0.0273438 17.496094 -0.0820312 17.769531 -0.214844 C 18.039062 -0.351562 18.28125 -0.515625 18.496094 -0.730469 C 18.6875 -0.917969 18.824219 -1.136719 18.929688 -1.40625 C 19.039062 -1.648438 19.09375 -1.894531 19.09375 -2.136719 C 19.09375 -2.40625 19.039062 -2.675781 18.929688 -2.894531 Z M 10.546875 -11.710938 C 10.601562 -11.546875 10.65625 -11.414062 10.710938 -11.277344 C 10.761719 -11.113281 10.84375 -10.980469 10.898438 -10.816406 C 10.953125 -10.628906 11.035156 -10.464844 11.113281 -10.304688 C 11.167969 -10.140625 11.222656 -9.980469 11.277344 -9.84375 C 11.304688 -9.761719 11.332031 -9.707031 11.332031 -9.707031 L 9.707031 -9.707031 C 9.734375 -9.734375 9.761719 -9.761719 9.761719 -9.816406 C 9.871094 -10.140625 10.007812 -10.4375 10.140625 -10.761719 C 10.25 -11.085938 10.382812 -11.386719 10.546875 -11.710938 Z M 10.546875 -11.710938 "/></g></g></g><g fill="#f15c5c" fill-opacity="0.302"><g transform="translate(34.566916, 22.235408)"><g><path d="M 6.542969 -10.980469 L 15.359375 -0.785156 C 15.550781 -0.539062 15.792969 -0.351562 16.117188 -0.1875 C 16.414062 -0.0273438 16.765625 0.0273438 17.144531 0.0273438 C 17.523438 0.0273438 17.847656 -0.0273438 18.121094 -0.164062 C 18.390625 -0.296875 18.632812 -0.460938 18.824219 -0.675781 C 19.011719 -0.890625 19.148438 -1.109375 19.253906 -1.378906 C 19.363281 -1.621094 19.417969 -1.867188 19.417969 -2.109375 L 19.417969 -17.011719 C 19.417969 -17.226562 19.363281 -17.46875 19.253906 -17.742188 C 19.148438 -17.984375 19.011719 -18.199219 18.824219 -18.417969 C 18.605469 -18.605469 18.363281 -18.769531 18.09375 -18.902344 C 17.820312 -19.039062 17.496094 -19.121094 17.117188 -19.121094 C 16.738281 -19.121094 16.386719 -19.039062 16.117188 -18.902344 C 15.847656 -18.769531 15.605469 -18.605469 15.414062 -18.390625 C 15.199219 -18.171875 15.0625 -17.957031 14.957031 -17.714844 C 14.847656 -17.441406 14.820312 -17.199219 14.820312 -16.984375 L 14.820312 -8.273438 L 6.085938 -18.390625 C 5.867188 -18.605469 5.625 -18.769531 5.328125 -18.929688 C 5.003906 -19.09375 4.679688 -19.175781 4.300781 -19.175781 C 3.921875 -19.175781 3.570312 -19.09375 3.300781 -18.957031 C 3.027344 -18.824219 2.785156 -18.660156 2.597656 -18.445312 C 2.378906 -18.226562 2.246094 -18.011719 2.136719 -17.769531 C 2.027344 -17.496094 2 -17.253906 2 -17.011719 L 2 -2.136719 C 2 -1.894531 2.027344 -1.648438 2.136719 -1.40625 C 2.246094 -1.136719 2.378906 -0.917969 2.570312 -0.703125 C 2.757812 -0.488281 3 -0.296875 3.273438 -0.164062 C 3.542969 -0.0273438 3.894531 0.0273438 4.273438 0.0273438 C 4.652344 0.0273438 4.976562 -0.0273438 5.273438 -0.164062 C 5.542969 -0.296875 5.789062 -0.460938 5.976562 -0.675781 C 6.164062 -0.890625 6.300781 -1.109375 6.410156 -1.378906 C 6.492188 -1.621094 6.542969 -1.867188 6.542969 -2.109375 Z M 6.542969 -10.980469 "/></g></g></g><g fill="#f15c5c" fill-opacity="0.302"><g transform="translate(56.060792, 22.235408)"><g><path d="M 4.300781 0 L 11.953125 0 C 12.332031 0 12.65625 -0.0546875 12.953125 -0.1875 C 13.222656 -0.324219 13.46875 -0.488281 13.65625 -0.703125 C 13.847656 -0.917969 13.980469 -1.136719 14.089844 -1.40625 C 14.171875 -1.648438 14.226562 -1.894531 14.226562 -2.136719 C 14.226562 -2.378906 14.171875 -2.625 14.0625 -2.894531 C 13.953125 -3.136719 13.820312 -3.351562 13.628906 -3.570312 C 13.414062 -3.757812 13.171875 -3.921875 12.898438 -4.054688 C 12.628906 -4.191406 12.304688 -4.273438 11.925781 -4.273438 L 6.894531 -4.273438 C 6.84375 -4.273438 6.761719 -4.300781 6.679688 -4.355469 C 6.570312 -4.40625 6.542969 -4.515625 6.542969 -4.679688 L 6.542969 -7.492188 C 6.542969 -7.625 6.570312 -7.734375 6.679688 -7.816406 C 6.761719 -7.871094 6.84375 -7.921875 6.894531 -7.921875 L 10.519531 -7.921875 C 10.898438 -7.921875 11.222656 -7.976562 11.492188 -8.113281 C 11.765625 -8.25 12.007812 -8.410156 12.195312 -8.625 C 12.386719 -8.84375 12.519531 -9.058594 12.628906 -9.328125 C 12.738281 -9.574219 12.792969 -9.816406 12.792969 -10.058594 C 12.792969 -10.304688 12.738281 -10.546875 12.628906 -10.816406 C 12.519531 -11.0625 12.386719 -11.277344 12.195312 -11.492188 C 11.980469 -11.683594 11.738281 -11.84375 11.464844 -11.980469 C 11.195312 -12.117188 10.871094 -12.195312 10.492188 -12.195312 L 6.867188 -12.195312 C 6.816406 -12.195312 6.734375 -12.222656 6.652344 -12.277344 C 6.542969 -12.332031 6.515625 -12.441406 6.515625 -12.601562 L 6.515625 -14.46875 C 6.515625 -14.605469 6.542969 -14.710938 6.652344 -14.792969 C 6.734375 -14.847656 6.816406 -14.902344 6.867188 -14.902344 L 11.898438 -14.902344 C 12.277344 -14.902344 12.601562 -14.957031 12.898438 -15.089844 C 13.171875 -15.226562 13.414062 -15.386719 13.601562 -15.605469 C 13.792969 -15.792969 13.925781 -16.011719 14.035156 -16.28125 C 14.117188 -16.523438 14.171875 -16.765625 14.171875 -17.011719 C 14.171875 -17.253906 14.117188 -17.496094 14.007812 -17.769531 C 13.898438 -18.011719 13.765625 -18.226562 13.574219 -18.445312 C 13.359375 -18.632812 13.117188 -18.796875 12.84375 -18.929688 C 12.574219 -19.066406 12.25 -19.148438 11.871094 -19.148438 L 4.21875 -19.148438 C 3.839844 -19.148438 3.488281 -19.066406 3.21875 -18.929688 C 2.949219 -18.796875 2.703125 -18.632812 2.515625 -18.417969 C 2.296875 -18.199219 2.164062 -17.984375 2.054688 -17.742188 C 1.945312 -17.46875 1.921875 -17.226562 1.921875 -17.011719 L 1.921875 -2.109375 C 1.921875 -1.839844 1.972656 -1.570312 2.082031 -1.324219 C 2.191406 -1.054688 2.351562 -0.839844 2.570312 -0.648438 C 2.785156 -0.433594 3.027344 -0.269531 3.328125 -0.164062 C 3.625 -0.0546875 3.949219 0 4.300781 0 Z M 4.300781 0 "/></g></g></g><g clip-path="url(#id1)"><g fill="#f15c5c" fill-opacity="0.302"><g transform="translate(72.336661, 22.235408)"><g><path d="M 6.921875 -2.296875 C 6.921875 -2.542969 6.867188 -2.8125 6.761719 -3.082031 C 6.652344 -3.351562 6.492188 -3.597656 6.300781 -3.8125 C 6.085938 -4.03125 5.839844 -4.191406 5.542969 -4.355469 C 5.21875 -4.488281 4.867188 -4.570312 4.488281 -4.570312 C 4.082031 -4.570312 3.730469 -4.488281 3.433594 -4.355469 C 3.109375 -4.191406 2.867188 -4.03125 2.675781 -3.8125 C 2.460938 -3.597656 2.324219 -3.351562 2.21875 -3.082031 C 2.109375 -2.8125 2.054688 -2.542969 2.054688 -2.296875 C 2.054688 -2.027344 2.109375 -1.785156 2.21875 -1.515625 C 2.324219 -1.242188 2.460938 -0.972656 2.675781 -0.757812 C 2.867188 -0.539062 3.109375 -0.351562 3.433594 -0.214844 C 3.730469 -0.0546875 4.082031 0 4.488281 0 C 4.867188 0 5.21875 -0.0546875 5.542969 -0.214844 C 5.839844 -0.351562 6.085938 -0.539062 6.300781 -0.757812 C 6.492188 -0.972656 6.652344 -1.242188 6.761719 -1.515625 C 6.867188 -1.785156 6.921875 -2.027344 6.921875 -2.296875 Z M 6.921875 -2.296875 "/></g></g></g></g><g fill="#f15c5c" fill-opacity="0.502"><g transform="translate(2.639255, 22.45331)"><g><path d="M 3.164062 -16.957031 L 3.21875 -1.839844 C 3.21875 -1.542969 3.109375 -1.296875 2.921875 -1.136719 C 2.730469 -0.945312 2.515625 -0.867188 2.296875 -0.867188 C 1.921875 -0.867188 1.570312 -0.785156 1.296875 -0.648438 C 1.027344 -0.515625 0.785156 -0.351562 0.59375 -0.136719 C 0.378906 0.0820312 0.242188 0.324219 0.136719 0.566406 C 0.0273438 0.839844 0 1.082031 0 1.296875 C 0 1.542969 0.0273438 1.785156 0.136719 2.027344 C 0.242188 2.296875 0.378906 2.515625 0.566406 2.730469 C 0.757812 2.949219 1 3.136719 1.269531 3.273438 C 1.542969 3.40625 1.894531 3.460938 2.273438 3.460938 C 3.136719 3.460938 3.894531 3.328125 4.570312 3 C 5.246094 2.675781 5.8125 2.273438 6.300781 1.757812 C 6.789062 1.269531 7.140625 0.703125 7.382812 0.0546875 C 7.625 -0.566406 7.761719 -1.191406 7.761719 -1.8125 L 7.761719 -17.011719 C 7.761719 -17.226562 7.707031 -17.46875 7.597656 -17.742188 C 7.492188 -17.984375 7.355469 -18.199219 7.167969 -18.417969 C 6.949219 -18.605469 6.707031 -18.769531 6.4375 -18.902344 C 6.164062 -19.039062 5.839844 -19.121094 5.460938 -19.121094 C 5.085938 -19.121094 4.734375 -19.039062 4.460938 -18.902344 C 4.191406 -18.769531 3.949219 -18.605469 3.757812 -18.390625 C 3.542969 -18.171875 3.40625 -17.957031 3.300781 -17.714844 C 3.191406 -17.441406 3.164062 -17.199219 3.164062 -16.957031 Z M 3.164062 -16.957031 "/></g></g></g><g fill="#f15c5c" fill-opacity="0.502"><g transform="translate(12.453435, 22.45331)"><g><path d="M 13.117188 -17.496094 C 12.953125 -17.929688 12.628906 -18.308594 12.195312 -18.660156 C 11.738281 -18.984375 11.195312 -19.175781 10.574219 -19.175781 C 9.925781 -19.175781 9.382812 -18.984375 8.925781 -18.660156 C 8.464844 -18.335938 8.140625 -17.929688 7.976562 -17.496094 L 2.164062 -2.894531 C 2.054688 -2.648438 2.027344 -2.40625 2.027344 -2.136719 C 2.027344 -1.894531 2.054688 -1.648438 2.164062 -1.40625 C 2.273438 -1.136719 2.40625 -0.917969 2.597656 -0.730469 C 2.785156 -0.515625 3.027344 -0.351562 3.328125 -0.214844 C 3.597656 -0.0820312 3.921875 -0.0273438 4.300781 -0.0273438 C 4.839844 -0.0273438 5.300781 -0.164062 5.679688 -0.460938 C 6.03125 -0.730469 6.273438 -1.054688 6.4375 -1.433594 L 7.949219 -5.246094 C 7.976562 -5.300781 8.03125 -5.355469 8.085938 -5.410156 C 8.140625 -5.4375 8.222656 -5.460938 8.273438 -5.460938 L 12.84375 -5.460938 C 12.953125 -5.460938 13.0625 -5.382812 13.171875 -5.246094 L 14.65625 -1.433594 C 14.792969 -1.054688 15.035156 -0.730469 15.414062 -0.460938 C 15.765625 -0.164062 16.226562 -0.0273438 16.792969 -0.0273438 C 17.171875 -0.0273438 17.496094 -0.0820312 17.769531 -0.214844 C 18.039062 -0.351562 18.28125 -0.515625 18.496094 -0.730469 C 18.6875 -0.917969 18.824219 -1.136719 18.929688 -1.40625 C 19.039062 -1.648438 19.09375 -1.894531 19.09375 -2.136719 C 19.09375 -2.40625 19.039062 -2.675781 18.929688 -2.894531 Z M 10.546875 -11.710938 C 10.601562 -11.546875 10.65625 -11.414062 10.710938 -11.277344 C 10.761719 -11.113281 10.84375 -10.980469 10.898438 -10.816406 C 10.953125 -10.628906 11.035156 -10.464844 11.113281 -10.304688 C 11.167969 -10.140625 11.222656 -9.980469 11.277344 -9.84375 C 11.304688 -9.761719 11.332031 -9.707031 11.332031 -9.707031 L 9.707031 -9.707031 C 9.734375 -9.734375 9.761719 -9.761719 9.761719 -9.816406 C 9.871094 -10.140625 10.007812 -10.4375 10.140625 -10.761719 C 10.25 -11.085938 10.382812 -11.386719 10.546875 -11.710938 Z M 10.546875 -11.710938 "/></g></g></g><g fill="#f15c5c" fill-opacity="0.502"><g transform="translate(33.541769, 22.45331)"><g><path d="M 6.542969 -10.980469 L 15.359375 -0.785156 C 15.550781 -0.539062 15.792969 -0.351562 16.117188 -0.1875 C 16.414062 -0.0273438 16.765625 0.0273438 17.144531 0.0273438 C 17.523438 0.0273438 17.847656 -0.0273438 18.121094 -0.164062 C 18.390625 -0.296875 18.632812 -0.460938 18.824219 -0.675781 C 19.011719 -0.890625 19.148438 -1.109375 19.253906 -1.378906 C 19.363281 -1.621094 19.417969 -1.867188 19.417969 -2.109375 L 19.417969 -17.011719 C 19.417969 -17.226562 19.363281 -17.46875 19.253906 -17.742188 C 19.148438 -17.984375 19.011719 -18.199219 18.824219 -18.417969 C 18.605469 -18.605469 18.363281 -18.769531 18.09375 -18.902344 C 17.820312 -19.039062 17.496094 -19.121094 17.117188 -19.121094 C 16.738281 -19.121094 16.386719 -19.039062 16.117188 -18.902344 C 15.847656 -18.769531 15.605469 -18.605469 15.414062 -18.390625 C 15.199219 -18.171875 15.0625 -17.957031 14.957031 -17.714844 C 14.847656 -17.441406 14.820312 -17.199219 14.820312 -16.984375 L 14.820312 -8.273438 L 6.085938 -18.390625 C 5.867188 -18.605469 5.625 -18.769531 5.328125 -18.929688 C 5.003906 -19.09375 4.679688 -19.175781 4.300781 -19.175781 C 3.921875 -19.175781 3.570312 -19.09375 3.300781 -18.957031 C 3.027344 -18.824219 2.785156 -18.660156 2.597656 -18.445312 C 2.378906 -18.226562 2.246094 -18.011719 2.136719 -17.769531 C 2.027344 -17.496094 2 -17.253906 2 -17.011719 L 2 -2.136719 C 2 -1.894531 2.027344 -1.648438 2.136719 -1.40625 C 2.246094 -1.136719 2.378906 -0.917969 2.570312 -0.703125 C 2.757812 -0.488281 3 -0.296875 3.273438 -0.164062 C 3.542969 -0.0273438 3.894531 0.0273438 4.273438 0.0273438 C 4.652344 0.0273438 4.976562 -0.0273438 5.273438 -0.164062 C 5.542969 -0.296875 5.789062 -0.460938 5.976562 -0.675781 C 6.164062 -0.890625 6.300781 -1.109375 6.410156 -1.378906 C 6.492188 -1.621094 6.542969 -1.867188 6.542969 -2.109375 Z M 6.542969 -10.980469 "/></g></g></g><g fill="#f15c5c" fill-opacity="0.502"><g transform="translate(55.035645, 22.45331)"><g><path d="M 4.300781 0 L 11.953125 0 C 12.332031 0 12.65625 -0.0546875 12.953125 -0.1875 C 13.222656 -0.324219 13.46875 -0.488281 13.65625 -0.703125 C 13.847656 -0.917969 13.980469 -1.136719 14.089844 -1.40625 C 14.171875 -1.648438 14.226562 -1.894531 14.226562 -2.136719 C 14.226562 -2.378906 14.171875 -2.625 14.0625 -2.894531 C 13.953125 -3.136719 13.820312 -3.351562 13.628906 -3.570312 C 13.414062 -3.757812 13.171875 -3.921875 12.898438 -4.054688 C 12.628906 -4.191406 12.304688 -4.273438 11.925781 -4.273438 L 6.894531 -4.273438 C 6.84375 -4.273438 6.761719 -4.300781 6.679688 -4.355469 C 6.570312 -4.40625 6.542969 -4.515625 6.542969 -4.679688 L 6.542969 -7.492188 C 6.542969 -7.625 6.570312 -7.734375 6.679688 -7.816406 C 6.761719 -7.871094 6.84375 -7.921875 6.894531 -7.921875 L 10.519531 -7.921875 C 10.898438 -7.921875 11.222656 -7.976562 11.492188 -8.113281 C 11.765625 -8.25 12.007812 -8.410156 12.195312 -8.625 C 12.386719 -8.84375 12.519531 -9.058594 12.628906 -9.328125 C 12.738281 -9.574219 12.792969 -9.816406 12.792969 -10.058594 C 12.792969 -10.304688 12.738281 -10.546875 12.628906 -10.816406 C 12.519531 -11.0625 12.386719 -11.277344 12.195312 -11.492188 C 11.980469 -11.683594 11.738281 -11.84375 11.464844 -11.980469 C 11.195312 -12.117188 10.871094 -12.195312 10.492188 -12.195312 L 6.867188 -12.195312 C 6.816406 -12.195312 6.734375 -12.222656 6.652344 -12.277344 C 6.542969 -12.332031 6.515625 -12.441406 6.515625 -12.601562 L 6.515625 -14.46875 C 6.515625 -14.605469 6.542969 -14.710938 6.652344 -14.792969 C 6.734375 -14.847656 6.816406 -14.902344 6.867188 -14.902344 L 11.898438 -14.902344 C 12.277344 -14.902344 12.601562 -14.957031 12.898438 -15.089844 C 13.171875 -15.226562 13.414062 -15.386719 13.601562 -15.605469 C 13.792969 -15.792969 13.925781 -16.011719 14.035156 -16.28125 C 14.117188 -16.523438 14.171875 -16.765625 14.171875 -17.011719 C 14.171875 -17.253906 14.117188 -17.496094 14.007812 -17.769531 C 13.898438 -18.011719 13.765625 -18.226562 13.574219 -18.445312 C 13.359375 -18.632812 13.117188 -18.796875 12.84375 -18.929688 C 12.574219 -19.066406 12.25 -19.148438 11.871094 -19.148438 L 4.21875 -19.148438 C 3.839844 -19.148438 3.488281 -19.066406 3.21875 -18.929688 C 2.949219 -18.796875 2.703125 -18.632812 2.515625 -18.417969 C 2.296875 -18.199219 2.164062 -17.984375 2.054688 -17.742188 C 1.945312 -17.46875 1.921875 -17.226562 1.921875 -17.011719 L 1.921875 -2.109375 C 1.921875 -1.839844 1.972656 -1.570312 2.082031 -1.324219 C 2.191406 -1.054688 2.351562 -0.839844 2.570312 -0.648438 C 2.785156 -0.433594 3.027344 -0.269531 3.328125 -0.164062 C 3.625 -0.0546875 3.949219 0 4.300781 0 Z M 4.300781 0 "/></g></g></g><g fill="#f15c5c" fill-opacity="0.502"><g transform="translate(71.311513, 22.45331)"><g><path d="M 6.921875 -2.296875 C 6.921875 -2.542969 6.867188 -2.8125 6.761719 -3.082031 C 6.652344 -3.351562 6.492188 -3.597656 6.300781 -3.8125 C 6.085938 -4.03125 5.839844 -4.191406 5.542969 -4.355469 C 5.21875 -4.488281 4.867188 -4.570312 4.488281 -4.570312 C 4.082031 -4.570312 3.730469 -4.488281 3.433594 -4.355469 C 3.109375 -4.191406 2.867188 -4.03125 2.675781 -3.8125 C 2.460938 -3.597656 2.324219 -3.351562 2.21875 -3.082031 C 2.109375 -2.8125 2.054688 -2.542969 2.054688 -2.296875 C 2.054688 -2.027344 2.109375 -1.785156 2.21875 -1.515625 C 2.324219 -1.242188 2.460938 -0.972656 2.675781 -0.757812 C 2.867188 -0.539062 3.109375 -0.351562 3.433594 -0.214844 C 3.730469 -0.0546875 4.082031 0 4.488281 0 C 4.867188 0 5.21875 -0.0546875 5.542969 -0.214844 C 5.839844 -0.351562 6.085938 -0.539062 6.300781 -0.757812 C 6.492188 -0.972656 6.652344 -1.242188 6.761719 -1.515625 C 6.867188 -1.785156 6.921875 -2.027344 6.921875 -2.296875 Z M 6.921875 -2.296875 "/></g></g></g><g clip-path="url(#id2)"><g fill="#ffffff" fill-opacity="1"><g transform="translate(1.614107, 22.671211)"><g><path d="M 3.164062 -16.957031 L 3.21875 -1.839844 C 3.21875 -1.542969 3.109375 -1.296875 2.921875 -1.136719 C 2.730469 -0.945312 2.515625 -0.867188 2.296875 -0.867188 C 1.921875 -0.867188 1.570312 -0.785156 1.296875 -0.648438 C 1.027344 -0.515625 0.785156 -0.351562 0.59375 -0.136719 C 0.378906 0.0820312 0.242188 0.324219 0.136719 0.566406 C 0.0273438 0.839844 0 1.082031 0 1.296875 C 0 1.542969 0.0273438 1.785156 0.136719 2.027344 C 0.242188 2.296875 0.378906 2.515625 0.566406 2.730469 C 0.757812 2.949219 1 3.136719 1.269531 3.273438 C 1.542969 3.40625 1.894531 3.460938 2.273438 3.460938 C 3.136719 3.460938 3.894531 3.328125 4.570312 3 C 5.246094 2.675781 5.8125 2.273438 6.300781 1.757812 C 6.789062 1.269531 7.140625 0.703125 7.382812 0.0546875 C 7.625 -0.566406 7.761719 -1.191406 7.761719 -1.8125 L 7.761719 -17.011719 C 7.761719 -17.226562 7.707031 -17.46875 7.597656 -17.742188 C 7.492188 -17.984375 7.355469 -18.199219 7.167969 -18.417969 C 6.949219 -18.605469 6.707031 -18.769531 6.4375 -18.902344 C 6.164062 -19.039062 5.839844 -19.121094 5.460938 -19.121094 C 5.085938 -19.121094 4.734375 -19.039062 4.460938 -18.902344 C 4.191406 -18.769531 3.949219 -18.605469 3.757812 -18.390625 C 3.542969 -18.171875 3.40625 -17.957031 3.300781 -17.714844 C 3.191406 -17.441406 3.164062 -17.199219 3.164062 -16.957031 Z M 3.164062 -16.957031 "/></g></g></g></g><g fill="#ffffff" fill-opacity="1"><g transform="translate(11.428287, 22.671211)"><g><path d="M 13.117188 -17.496094 C 12.953125 -17.929688 12.628906 -18.308594 12.195312 -18.660156 C 11.738281 -18.984375 11.195312 -19.175781 10.574219 -19.175781 C 9.925781 -19.175781 9.382812 -18.984375 8.925781 -18.660156 C 8.464844 -18.335938 8.140625 -17.929688 7.976562 -17.496094 L 2.164062 -2.894531 C 2.054688 -2.648438 2.027344 -2.40625 2.027344 -2.136719 C 2.027344 -1.894531 2.054688 -1.648438 2.164062 -1.40625 C 2.273438 -1.136719 2.40625 -0.917969 2.597656 -0.730469 C 2.785156 -0.515625 3.027344 -0.351562 3.328125 -0.214844 C 3.597656 -0.0820312 3.921875 -0.0273438 4.300781 -0.0273438 C 4.839844 -0.0273438 5.300781 -0.164062 5.679688 -0.460938 C 6.03125 -0.730469 6.273438 -1.054688 6.4375 -1.433594 L 7.949219 -5.246094 C 7.976562 -5.300781 8.03125 -5.355469 8.085938 -5.410156 C 8.140625 -5.4375 8.222656 -5.460938 8.273438 -5.460938 L 12.84375 -5.460938 C 12.953125 -5.460938 13.0625 -5.382812 13.171875 -5.246094 L 14.65625 -1.433594 C 14.792969 -1.054688 15.035156 -0.730469 15.414062 -0.460938 C 15.765625 -0.164062 16.226562 -0.0273438 16.792969 -0.0273438 C 17.171875 -0.0273438 17.496094 -0.0820312 17.769531 -0.214844 C 18.039062 -0.351562 18.28125 -0.515625 18.496094 -0.730469 C 18.6875 -0.917969 18.824219 -1.136719 18.929688 -1.40625 C 19.039062 -1.648438 19.09375 -1.894531 19.09375 -2.136719 C 19.09375 -2.40625 19.039062 -2.675781 18.929688 -2.894531 Z M 10.546875 -11.710938 C 10.601562 -11.546875 10.65625 -11.414062 10.710938 -11.277344 C 10.761719 -11.113281 10.84375 -10.980469 10.898438 -10.816406 C 10.953125 -10.628906 11.035156 -10.464844 11.113281 -10.304688 C 11.167969 -10.140625 11.222656 -9.980469 11.277344 -9.84375 C 11.304688 -9.761719 11.332031 -9.707031 11.332031 -9.707031 L 9.707031 -9.707031 C 9.734375 -9.734375 9.761719 -9.761719 9.761719 -9.816406 C 9.871094 -10.140625 10.007812 -10.4375 10.140625 -10.761719 C 10.25 -11.085938 10.382812 -11.386719 10.546875 -11.710938 Z M 10.546875 -11.710938 "/></g></g></g><g fill="#ffffff" fill-opacity="1"><g transform="translate(32.516621, 22.671211)"><g><path d="M 6.542969 -10.980469 L 15.359375 -0.785156 C 15.550781 -0.539062 15.792969 -0.351562 16.117188 -0.1875 C 16.414062 -0.0273438 16.765625 0.0273438 17.144531 0.0273438 C 17.523438 0.0273438 17.847656 -0.0273438 18.121094 -0.164062 C 18.390625 -0.296875 18.632812 -0.460938 18.824219 -0.675781 C 19.011719 -0.890625 19.148438 -1.109375 19.253906 -1.378906 C 19.363281 -1.621094 19.417969 -1.867188 19.417969 -2.109375 L 19.417969 -17.011719 C 19.417969 -17.226562 19.363281 -17.46875 19.253906 -17.742188 C 19.148438 -17.984375 19.011719 -18.199219 18.824219 -18.417969 C 18.605469 -18.605469 18.363281 -18.769531 18.09375 -18.902344 C 17.820312 -19.039062 17.496094 -19.121094 17.117188 -19.121094 C 16.738281 -19.121094 16.386719 -19.039062 16.117188 -18.902344 C 15.847656 -18.769531 15.605469 -18.605469 15.414062 -18.390625 C 15.199219 -18.171875 15.0625 -17.957031 14.957031 -17.714844 C 14.847656 -17.441406 14.820312 -17.199219 14.820312 -16.984375 L 14.820312 -8.273438 L 6.085938 -18.390625 C 5.867188 -18.605469 5.625 -18.769531 5.328125 -18.929688 C 5.003906 -19.09375 4.679688 -19.175781 4.300781 -19.175781 C 3.921875 -19.175781 3.570312 -19.09375 3.300781 -18.957031 C 3.027344 -18.824219 2.785156 -18.660156 2.597656 -18.445312 C 2.378906 -18.226562 2.246094 -18.011719 2.136719 -17.769531 C 2.027344 -17.496094 2 -17.253906 2 -17.011719 L 2 -2.136719 C 2 -1.894531 2.027344 -1.648438 2.136719 -1.40625 C 2.246094 -1.136719 2.378906 -0.917969 2.570312 -0.703125 C 2.757812 -0.488281 3 -0.296875 3.273438 -0.164062 C 3.542969 -0.0273438 3.894531 0.0273438 4.273438 0.0273438 C 4.652344 0.0273438 4.976562 -0.0273438 5.273438 -0.164062 C 5.542969 -0.296875 5.789062 -0.460938 5.976562 -0.675781 C 6.164062 -0.890625 6.300781 -1.109375 6.410156 -1.378906 C 6.492188 -1.621094 6.542969 -1.867188 6.542969 -2.109375 Z M 6.542969 -10.980469 "/></g></g></g><g fill="#ffffff" fill-opacity="1"><g transform="translate(54.010497, 22.671211)"><g><path d="M 4.300781 0 L 11.953125 0 C 12.332031 0 12.65625 -0.0546875 12.953125 -0.1875 C 13.222656 -0.324219 13.46875 -0.488281 13.65625 -0.703125 C 13.847656 -0.917969 13.980469 -1.136719 14.089844 -1.40625 C 14.171875 -1.648438 14.226562 -1.894531 14.226562 -2.136719 C 14.226562 -2.378906 14.171875 -2.625 14.0625 -2.894531 C 13.953125 -3.136719 13.820312 -3.351562 13.628906 -3.570312 C 13.414062 -3.757812 13.171875 -3.921875 12.898438 -4.054688 C 12.628906 -4.191406 12.304688 -4.273438 11.925781 -4.273438 L 6.894531 -4.273438 C 6.84375 -4.273438 6.761719 -4.300781 6.679688 -4.355469 C 6.570312 -4.40625 6.542969 -4.515625 6.542969 -4.679688 L 6.542969 -7.492188 C 6.542969 -7.625 6.570312 -7.734375 6.679688 -7.816406 C 6.761719 -7.871094 6.84375 -7.921875 6.894531 -7.921875 L 10.519531 -7.921875 C 10.898438 -7.921875 11.222656 -7.976562 11.492188 -8.113281 C 11.765625 -8.25 12.007812 -8.410156 12.195312 -8.625 C 12.386719 -8.84375 12.519531 -9.058594 12.628906 -9.328125 C 12.738281 -9.574219 12.792969 -9.816406 12.792969 -10.058594 C 12.792969 -10.304688 12.738281 -10.546875 12.628906 -10.816406 C 12.519531 -11.0625 12.386719 -11.277344 12.195312 -11.492188 C 11.980469 -11.683594 11.738281 -11.84375 11.464844 -11.980469 C 11.195312 -12.117188 10.871094 -12.195312 10.492188 -12.195312 L 6.867188 -12.195312 C 6.816406 -12.195312 6.734375 -12.222656 6.652344 -12.277344 C 6.542969 -12.332031 6.515625 -12.441406 6.515625 -12.601562 L 6.515625 -14.46875 C 6.515625 -14.605469 6.542969 -14.710938 6.652344 -14.792969 C 6.734375 -14.847656 6.816406 -14.902344 6.867188 -14.902344 L 11.898438 -14.902344 C 12.277344 -14.902344 12.601562 -14.957031 12.898438 -15.089844 C 13.171875 -15.226562 13.414062 -15.386719 13.601562 -15.605469 C 13.792969 -15.792969 13.925781 -16.011719 14.035156 -16.28125 C 14.117188 -16.523438 14.171875 -16.765625 14.171875 -17.011719 C 14.171875 -17.253906 14.117188 -17.496094 14.007812 -17.769531 C 13.898438 -18.011719 13.765625 -18.226562 13.574219 -18.445312 C 13.359375 -18.632812 13.117188 -18.796875 12.84375 -18.929688 C 12.574219 -19.066406 12.25 -19.148438 11.871094 -19.148438 L 4.21875 -19.148438 C 3.839844 -19.148438 3.488281 -19.066406 3.21875 -18.929688 C 2.949219 -18.796875 2.703125 -18.632812 2.515625 -18.417969 C 2.296875 -18.199219 2.164062 -17.984375 2.054688 -17.742188 C 1.945312 -17.46875 1.921875 -17.226562 1.921875 -17.011719 L 1.921875 -2.109375 C 1.921875 -1.839844 1.972656 -1.570312 2.082031 -1.324219 C 2.191406 -1.054688 2.351562 -0.839844 2.570312 -0.648438 C 2.785156 -0.433594 3.027344 -0.269531 3.328125 -0.164062 C 3.625 -0.0546875 3.949219 0 4.300781 0 Z M 4.300781 0 "/></g></g></g><g fill="#ffffff" fill-opacity="1"><g transform="translate(70.286365, 22.671211)"><g><path d="M 6.921875 -2.296875 C 6.921875 -2.542969 6.867188 -2.8125 6.761719 -3.082031 C 6.652344 -3.351562 6.492188 -3.597656 6.300781 -3.8125 C 6.085938 -4.03125 5.839844 -4.191406 5.542969 -4.355469 C 5.21875 -4.488281 4.867188 -4.570312 4.488281 -4.570312 C 4.082031 -4.570312 3.730469 -4.488281 3.433594 -4.355469 C 3.109375 -4.191406 2.867188 -4.03125 2.675781 -3.8125 C 2.460938 -3.597656 2.324219 -3.351562 2.21875 -3.082031 C 2.109375 -2.8125 2.054688 -2.542969 2.054688 -2.296875 C 2.054688 -2.027344 2.109375 -1.785156 2.21875 -1.515625 C 2.324219 -1.242188 2.460938 -0.972656 2.675781 -0.757812 C 2.867188 -0.539062 3.109375 -0.351562 3.433594 -0.214844 C 3.730469 -0.0546875 4.082031 0 4.488281 0 C 4.867188 0 5.21875 -0.0546875 5.542969 -0.214844 C 5.839844 -0.351562 6.085938 -0.539062 6.300781 -0.757812 C 6.492188 -0.972656 6.652344 -1.242188 6.761719 -1.515625 C 6.867188 -1.785156 6.921875 -2.027344 6.921875 -2.296875 Z M 6.921875 -2.296875 "/></g></g></g></svg>